# xmcd
#
# Track frame offsets:
#	150
#	25207
#	52052
#	74910
#	92935
#	113314
#	137546
#	141983
#	163020
#	182928
#	202005
#	230791
#
# Disc length: 3470 seconds
#
# Revision: 1
# Processed by: cddbd v1.5.1PL0 Copyright (c) Steve Scherf et al.
# Submitted via: CDmax 2.0
#
DISCID=b90d8c0c
DTITLE=Hot Tuna - Live at the Woodbury Ski and Racket Area - 05.04.1986
DYEAR=1986
DGENRE=Blues
TTITLE0=I Know You Rider
TTITLE1=Hesitation Blues
TTITLE2=Walkin' Blues
TTITLE3=Candy Man
TTITLE4=Broken Highway
TTITLE5=Ice Age
TTITLE6=chat - tuning
TTITLE7=Too Many Years
TTITLE8=Follow The Drinking Gourd
TTITLE9=Keep On Truckin
TTITLE10=Death Don't have No Mercy
TTITLE11=Killing Time In the Crystal City
EXTD=Hot Tuna\n05-04-86\nWoodbury Ski and Racket Area, Woodbury, CT\n\nMSC>?>CD
EXTD=R>SHN\n\nDisc 1 57:48\n\nI Know You Rider\nHesitation Blues\nWalkin' Blu
EXTD=es\nCandy Man\nBroken Highway\nIce Age\nToo Many Years\nFollow The Drink
EXTD=ing Gourd\nKeep On Truckin'\nDeath Don't Have No Mercy\nKilling Time I
EXTD=n The Crystal City\n\nNotes:  Short but sweet set.  Source may be maste
EXTD=r \nor 2nd gen cassette - probably master.
EXTT0=
EXTT1=
EXTT2=
EXTT3=
EXTT4=
EXTT5=
EXTT6=
EXTT7=
EXTT8=
EXTT9=
EXTT10=
EXTT11=
PLAYORDER=
